HIERARCHY
ROOT Pelvis
{
	OFFSET 0.000000 0.000000 0.000000
	CHANNELS 6 Xposition Yposition Zposition Xrotation Yrotation Zrotation
	JOINT LeftUpLeg_virtual
	{
		OFFSET 0.000000 0.000000 0.000000
		CHANNELS 3 Xrotation Yrotation Zrotation
		JOINT LeftUpLeg
		{
			OFFSET 18.735201 -5.666702 -4.541200
			CHANNELS 3 Xrotation Yrotation Zrotation
			JOINT LeftLeg
			{
				OFFSET -0.021200 -31.938179 0.493100
				CHANNELS 3 Xrotation Yrotation Zrotation
				JOINT LeftFoot
				{
					OFFSET 0.021200 -31.938179 -4.336299
					CHANNELS 3 Xrotation Yrotation Zrotation
					JOINT LeftToeBase
					{
						OFFSET 0.943001 -26.722000 15.023500
						CHANNELS 3 Xrotation Yrotation Zrotation
						End Site
						{
							OFFSET 0 0 0
						}
					}
				}
			}
		}
	}
	JOINT RightUpLeg_virtual
	{
		OFFSET 0.000000 0.000000 0.000000
		CHANNELS 3 Xrotation Yrotation Zrotation
		JOINT RightUpLeg
		{
			OFFSET -18.735201 -5.666702 -4.541200
			CHANNELS 3 Xrotation Yrotation Zrotation
			JOINT RightLeg
			{
				OFFSET 0.018946 -31.938133 0.493100
				CHANNELS 3 Xrotation Yrotation Zrotation
				JOINT RightFoot
				{
					OFFSET -0.018946 -31.938126 -4.336299
					CHANNELS 3 Xrotation Yrotation Zrotation
					JOINT RightToeBase
					{
						OFFSET -0.943001 -26.722004 15.023500
						CHANNELS 3 Xrotation Yrotation Zrotation
						End Site
						{
							OFFSET 0 0 0
						}
					}
				}
			}
		}
	}
	JOINT Hips_virtual
	{
		OFFSET 0.000000 0.000000 0.000000
		CHANNELS 3 Xrotation Yrotation Zrotation
		JOINT Hips
		{
			OFFSET -0.000000 -0.000000 -0.000000
			CHANNELS 3 Xrotation Yrotation Zrotation
			JOINT Spine
			{
				OFFSET 0.000000 10.199997 -0.299500
				CHANNELS 3 Xrotation Yrotation Zrotation
				JOINT Spine1
				{
					OFFSET 0.000000 11.900002 -1.516600
					CHANNELS 3 Xrotation Yrotation Zrotation
					JOINT Spine2
					{
						OFFSET 0.000000 13.600006 -2.842500
						CHANNELS 3 Xrotation Yrotation Zrotation
						JOINT Neck_virtual
						{
							OFFSET 0.000000 0.000000 0.000000
							CHANNELS 3 Xrotation Yrotation Zrotation
							JOINT Neck
							{
								OFFSET 0.000000 9.624100 -2.890100
								CHANNELS 3 Xrotation Yrotation Zrotation
								JOINT Head
								{
									OFFSET 0.000000 14.068802 -1.351900
									CHANNELS 3 Xrotation Yrotation Zrotation
									End Site
									{
										OFFSET 0 0 0
									}
								}
							}
						}
						JOINT LeftShoulder_virtual
						{
							OFFSET 0.000000 0.000000 0.000000
							CHANNELS 3 Xrotation Yrotation Zrotation
							JOINT LeftShoulder
							{
								OFFSET 15.263000 10.923401 -0.547700
								CHANNELS 3 Xrotation Yrotation Zrotation
								JOINT LeftArm
								{
									OFFSET 25.438599 -2.830597 -13.032500
									CHANNELS 3 Xrotation Yrotation Zrotation
									JOINT LeftForeArm
									{
										OFFSET 29.960503 0.000000 0.000000
										CHANNELS 3 Xrotation Yrotation Zrotation
										JOINT LeftHand
										{
											OFFSET 27.849251 0.000000 0.000000
											CHANNELS 3 Xrotation Yrotation Zrotation
											End Site
											{
												OFFSET 0 0 0
											}
										}
									}
								}
							}
						}
						JOINT RightShoulder_virtual
						{
							OFFSET 0.000000 0.000000 0.000000
							CHANNELS 3 Xrotation Yrotation Zrotation
							JOINT RightShoulder
							{
								OFFSET -15.263000 10.923401 -0.547700
								CHANNELS 3 Xrotation Yrotation Zrotation
								JOINT RightArm
								{
									OFFSET -25.438599 -2.830597 -13.032500
									CHANNELS 3 Xrotation Yrotation Zrotation
									JOINT RightForeArm
									{
										OFFSET -29.960503 0.000000 0.000000
										CHANNELS 3 Xrotation Yrotation Zrotation
										JOINT RightHand
										{
											OFFSET -27.849251 0.000000 0.000000
											CHANNELS 3 Xrotation Yrotation Zrotation
											End Site
											{
												OFFSET 0 0 0
											}
										}
									}
								}
							}
						}
					}
				}
			}
		}
	}
}
MOTION
Frames: 6
Frame Time: 0.03333333
-1.073320 91.558357 5.835483 0.000000 0.000000 0.000000 1.875381 -1.047446 -4.190861 -40.902697 11.069692 14.154404 37.887872 3.745915 1.866813 -11.312199 2.851791 -0.342854 0.000000 0.000000 0.000000 6.352314 -27.526504 3.993421 -24.244711 -13.176547 -13.910878 35.118562 0.828489 -3.882688 -15.707268 -0.894184 5.104681 0.000000 0.000000 0.000000 -0.032838 -11.678909 1.168781 -3.300116 -10.046119 0.129201 4.538669 -0.646150 -1.027782 1.594624 -0.356530 -0.515661 0.000000 0.000000 0.000000 2.594504 1.286481 -0.042530 -0.571319 0.463796 0.809378 0.000000 0.000000 0.000000 1.279308 1.245498 1.032394 0.183920 -1.674688 3.220852 -45.431994 -14.120673 -52.143474 -27.713289 -73.380697 -23.286688 0.000000 0.000000 0.000000 1.584445 -2.597977 0.535508 0.791985 -5.106436 6.689976 -31.646869 56.180949 43.165197 177.303883 72.022542 -177.971125 0.000000 0.000000 0.000000 
-1.077600 91.554359 5.853734 0.000000 0.000000 0.000000 1.881514 -1.033442 -4.186030 -40.893695 11.072057 14.159135 37.887080 3.737676 1.867700 -11.312525 2.843335 -0.346900 0.000000 0.000000 0.000000 6.343094 -27.602816 3.997482 -24.269691 -13.196017 -13.917416 35.126471 0.862326 -3.907518 -15.708078 -0.848234 5.088049 0.000000 0.000000 0.000000 -0.035325 -11.683140 1.171394 -3.317550 -10.060588 0.140728 4.539397 -0.649402 -1.023371 1.594426 -0.359391 -0.512794 0.000000 0.000000 0.000000 2.591727 1.285945 -0.042335 -0.571094 0.464473 0.808604 0.000000 0.000000 0.000000 1.279374 1.245680 1.027531 0.179957 -1.665010 3.194159 -45.408976 -14.118917 -52.119835 -27.626853 -73.347591 -23.204823 0.000000 0.000000 0.000000 1.581403 -2.599969 0.536955 0.786862 -5.101712 6.686885 -31.637979 56.190867 43.147265 177.283434 72.021667 -177.954964 0.000000 0.000000 0.000000 
-1.081825 91.550133 5.873320 0.000000 0.000000 0.000000 1.884276 -1.010874 -4.181645 -40.889983 11.075827 14.164790 37.888162 3.724867 1.869900 -11.310961 2.829694 -0.351776 0.000000 0.000000 0.000000 6.332802 -27.684181 4.002140 -24.297151 -13.216770 -13.924030 35.137239 0.899030 -3.934194 -15.707244 -0.798394 5.070517 0.000000 0.000000 0.000000 -0.038513 -11.689076 1.173901 -3.334904 -10.072065 0.150617 4.540209 -0.653276 -1.018258 1.593860 -0.362724 -0.509333 0.000000 0.000000 0.000000 2.588913 1.285075 -0.041542 -0.570588 0.465241 0.807836 0.000000 0.000000 0.000000 1.279789 1.245231 1.022666 0.176318 -1.655861 3.165839 -45.390459 -14.118919 -52.094174 -27.542970 -73.315080 -23.124843 0.000000 0.000000 0.000000 1.578211 -2.602002 0.538130 0.781914 -5.094513 6.680702 -31.630900 56.196717 43.132511 177.264897 72.022521 -177.940799 0.000000 0.000000 0.000000 
-1.086024 91.545891 5.894064 0.000000 0.000000 0.000000 1.883914 -0.980947 -4.177768 -40.891188 11.080814 14.171177 37.891096 3.708354 1.873185 -11.307610 2.811830 -0.357283 0.000000 0.000000 0.000000 6.321784 -27.769263 4.007424 -24.326432 -13.238511 -13.930523 35.150681 0.938004 -3.962343 -15.704789 -0.745440 5.052281 0.000000 0.000000 0.000000 -0.042381 -11.696896 1.176305 -3.352075 -10.080410 0.158826 4.541116 -0.657863 -1.012383 1.592931 -0.366569 -0.505235 0.000000 0.000000 0.000000 2.586134 1.283804 -0.040191 -0.569770 0.466084 0.807036 0.000000 0.000000 0.000000 1.280548 1.244066 1.017934 0.173081 -1.647400 3.136381 -45.377175 -14.120088 -52.066399 -27.462466 -73.282739 -23.047365 0.000000 0.000000 0.000000 1.574856 -2.604114 0.538975 0.777180 -5.084893 6.671117 -31.626173 56.198551 43.122263 177.248955 72.024543 -177.929051 0.000000 0.000000 0.000000 
-1.090183 91.541855 5.915693 0.000000 0.000000 0.000000 1.880868 -0.945248 -4.174444 -40.896666 11.086774 14.178058 37.895761 3.689249 1.877264 -11.302649 2.790982 -0.363175 0.000000 0.000000 0.000000 6.310370 -27.856460 4.013306 -24.356854 -13.260855 -13.936739 35.166629 0.978762 -3.991614 -15.700677 -0.690024 5.033549 0.000000 0.000000 0.000000 -0.046914 -11.706818 1.178624 -3.368947 -10.085676 0.165463 4.542116 -0.663262 -1.005686 1.591638 -0.370964 -0.500460 0.000000 0.000000 0.000000 2.583452 1.282069 -0.038355 -0.568614 0.466989 0.806153 0.000000 0.000000 0.000000 1.281610 1.242117 1.013462 0.170302 -1.639749 3.106271 -45.369637 -14.121853 -52.036425 -27.385840 -73.250125 -22.972703 0.000000 0.000000 0.000000 1.571316 -2.606338 0.539423 0.772696 -5.072912 6.657795 -31.624274 56.196454 43.117666 177.236224 72.027056 -177.920144 0.000000 0.000000 0.000000 
-1.094235 91.538231 5.937849 0.000000 0.000000 0.000000 1.875736 -0.905675 -4.171709 -40.905515 11.093425 14.185147 37.901953 3.668831 1.881796 -11.296353 2.768583 -0.369170 0.000000 0.000000 0.000000 6.298854 -27.943953 4.019680 -24.387762 -13.283345 -13.942551 35.184883 1.020894 -4.021679 -15.694907 -0.632714 5.014558 0.000000 0.000000 0.000000 -0.052088 -11.719035 1.180884 -3.385361 -10.088065 0.170771 4.543181 -0.669570 -0.998119 1.589969 -0.375940 -0.494974 0.000000 0.000000 0.000000 2.580911 1.279820 -0.036131 -0.567104 0.467940 0.805127 0.000000 0.000000 0.000000 1.282897 1.239342 1.009366 0.168011 -1.632986 3.075967 -45.368179 -14.123664 -52.004200 -27.313331 -73.216821 -22.900967 0.000000 0.000000 0.000000 1.567563 -2.608700 0.539400 0.768489 -5.058643 6.640391 -31.625692 56.190788 43.119756 177.227194 72.029358 -177.914325 0.000000 0.000000 0.000000 
